# xmcd CD database file
#
# Track frame offsets:
#	150
#	13663
#	31124
#	47954
#	64447
#	80019
#	98121
#	110637
#	123844
#	141254
#	153874
#
# Disc length: 2241 seconds
#
# Revision: 0
# Processed by: cddbd v1.5.1PL0 Copyright (c) Steve Scherf et al.
# Submitted via: CDex 1.51
#
DISCID=9108bf0b
DTITLE=Jack Teagarden - Think Well of Me
DYEAR=1962
DGENRE=Jazz
TTITLE0=Where Are You?
TTITLE1=Cottage for Sale
TTITLE2=Guess I'll Go Back Home (This Summer)
TTITLE3=I'm a Fool About My Mama
TTITLE4=Don't Smoke In Bed
TTITLE5=In a Little Waterfront Cafe
TTITLE6=Think Well of Me
TTITLE7=Old Folks
TTITLE8=Country Boy Blues
TTITLE9='Tain't So, Honey, 'Tain't So
TTITLE10='Round My Old Deserted Farm
EXTD=YEAR: 1962
EXTT0=
EXTT1=
EXTT2=
EXTT3=
EXTT4=
EXTT5=
EXTT6=
EXTT7=
EXTT8=
EXTT9=
EXTT10=
PLAYORDER=
